<svg viewBox="0 0 200 200" xmlns="http://www.w3.org/2000/svg">
  <circle cx="100" cy="100" r="100" fill="#FFE8D4"/>
  <polygon points="66,90 48,38 96,72" fill="#D04818"/>
  <polygon points="134,90 152,38 104,72" fill="#D04818"/>
  <polygon points="69,85 56,50 92,73" fill="#FF8C4A"/>
  <polygon points="131,85 144,50 108,73" fill="#FF8C4A"/>
  <circle cx="100" cy="112" r="72" fill="#E87030"/>
  <ellipse cx="100" cy="132" rx="38" ry="30" fill="white" opacity="0.88"/>
  <circle cx="78" cy="100" r="10" fill="#3D2010"/>
  <circle cx="122" cy="100" r="10" fill="#3D2010"/>
  <circle cx="82" cy="96" r="3.5" fill="white"/>
  <circle cx="126" cy="96" r="3.5" fill="white"/>
  <ellipse cx="100" cy="118" rx="8" ry="6" fill="#3D2010"/>
  <path d="M 88 130 Q 100 140 112 130" stroke="#8B4010" stroke-width="2.5" fill="none" stroke-linecap="round"/>
  <circle cx="68" cy="120" r="13" fill="#FFB090" opacity="0.35"/>
  <circle cx="132" cy="120" r="13" fill="#FFB090" opacity="0.35"/>
</svg>
