<svg viewBox="0 0 360 320" xmlns="http://www.w3.org/2000/svg" font-family="sans-serif">
  <!-- 카드 배경 -->
  <rect width="360" height="320" rx="28" fill="#FFF9F2"/>

  <!-- 얼굴 단면 살 (매끄러운 옆모습) -->
  <path d="M 28 40 Q 130 18 230 30 Q 320 42 330 110
           L 330 240 Q 320 290 240 296 Q 130 304 60 286
           Q 28 276 28 230 Q 25 180 28 130 Z"
        fill="#FFE3CC"/>

  <!-- 구강 내부 -->
  <path d="M 23 124
           L 58 120
           Q 60 106 85 104
           Q 150 62 225 80 Q 272 92 282 122
           L 286 150 Q 290 162 280 168
           L 282 215 Q 270 252 200 256 Q 120 260 88 238 Q 62 224 58 202
           L 58 190
           L 23 186 Z"
        fill="#FFF6F0"/>
  

  <!-- 입천장: 치조 융기 + 경구개 + 연구개/목젖 -->
  <path d="M 85 104 Q 96 96 108 104 Q 116 110 126 104
           Q 170 72 225 84 Q 266 94 278 120"
        fill="none" stroke="#E8A988" stroke-width="7" stroke-linecap="round"/>
  <!-- 목젖 -->
  <path d="M 278 120 Q 288 138 280 156 Q 276 166 282 174"
        fill="none" stroke="#E8A988" stroke-width="7" stroke-linecap="round"/>

  <!-- 입 바닥/아래턱 -->
  <path d="M 88 238 Q 150 258 230 250 Q 268 244 280 218"
        fill="none" stroke="#E8A988" stroke-width="7" stroke-linecap="round"/>

  <!-- 윗니 / 아랫니 -->
  <rect x="60" y="100" width="22" height="40" rx="9" fill="#FFFFFF" stroke="#E5D8CC" stroke-width="2.5"/>
  <rect x="60" y="180" width="22" height="40" rx="9" fill="#FFFFFF" stroke="#E5D8CC" stroke-width="2.5"/>

  <!-- 입술 -->
  <!-- 다문 입술 (양순음 — 위아래 입술이 y≈155에서 맞붙음) -->
       <path d="M 58 155 Q 46 142 31 136 Q 20 145 21 155 Q 34 155 58 155 Z"
             fill="#FFB59B" stroke="#E8947A" stroke-width="1.5" stroke-linejoin="round"/>
       <path d="M 58 155 Q 46 168 31 174 Q 20 165 21 155 Q 34 155 58 155 Z"
             fill="#FFB59B" stroke="#E8947A" stroke-width="1.5" stroke-linejoin="round"/>
       <path d="M 22 155 L 56 155" stroke="#E8947A" stroke-width="2.5" stroke-linecap="round"/>

  <!-- 혀 (음소별) -->
  
  <path d="M 96 206
           Q 100 186 132 176 Q 178 166 216 176 Q 250 186 258 212
           Q 262 226 252 236 Q 210 240 160 234 Q 116 228 98 218 Q 90 212 96 206 Z"
        fill="#FF9B8A" stroke="#E8705F" stroke-width="3.5" stroke-linejoin="round"/>
  <path d="M 116 196 Q 165 184 210 194" fill="none" stroke="#FFFFFF" stroke-width="2.5" opacity="0.4" stroke-linecap="round"/>

  <!-- 접촉/근접 포인트 표시 -->
  

  <!-- 공기 흐름 -->
  

</svg>