<svg viewBox="0 0 360 320" xmlns="http://www.w3.org/2000/svg" font-family="sans-serif">
  <!-- 카드 배경 -->
  <rect width="360" height="320" rx="28" fill="#FFF9F2"/>

  <!-- 얼굴 단면 살 (매끄러운 옆모습) -->
  <path d="M 28 40 Q 130 18 230 30 Q 320 42 330 110
           L 330 240 Q 320 290 240 296 Q 130 304 60 286
           Q 28 276 28 230 Q 25 180 28 130 Z"
        fill="#FFE3CC"/>

  <!-- 구강 내부 — 입술 사이 열린 공간까지 확장 -->
  <path d="M 23 124
           L 58 120
           Q 60 106 85 104
           Q 150 62 225 80 Q 272 92 282 122
           L 286 150 Q 290 162 280 168
           L 282 215 Q 270 252 200 256 Q 120 260 88 238 Q 62 224 58 202
           L 58 186
           L 23 182 Z"
        fill="#FFF6F0"/>
  <!-- 입 열린 공간: 바깥(카드 배경)까지 완전히 뚫림 -->
  <path d="M 0 125
           Q 40 123 58 121
           L 58 185
           Q 40 183 0 181 Z"
        fill="#FFF9F2"/>

  <!-- 입천장: 치조 융기 + 경구개 + 연구개/목젖 -->
  <path d="M 85 104 Q 96 96 108 104 Q 116 110 126 104
           Q 170 72 225 84 Q 266 94 278 120"
        fill="none" stroke="#E8A988" stroke-width="7" stroke-linecap="round"/>
  <!-- 목젖 -->
  <path d="M 278 120 Q 288 138 280 156 Q 276 166 282 174"
        fill="none" stroke="#E8A988" stroke-width="7" stroke-linecap="round"/>

  <!-- 입 바닥/아래턱 -->
  <path d="M 88 238 Q 150 258 230 250 Q 268 244 280 218"
        fill="none" stroke="#E8A988" stroke-width="7" stroke-linecap="round"/>

  <!-- 윗니 / 아랫니 -->
  <rect x="60" y="100" width="22" height="40" rx="9" fill="#FFFFFF" stroke="#E5D8CC" stroke-width="2.5"/>
  <rect x="60" y="180" width="22" height="40" rx="9" fill="#FFFFFF" stroke="#E5D8CC" stroke-width="2.5"/>

  <!-- 입술: 옆에서 본 렌즈형 사이드 프로파일 (발음별 열린 정도) -->
  <!-- 윗입술: 왼쪽(입술 끝)이 뾰족하고 오른쪽(입꼬리)이 연결됨 -->
  <path d="M 56 112
           Q 46 102 32 95
           Q 22 103 22 110
           Q 22 117 32 123
           Q 46 120 56 112 Z"
        fill="#FFB59B" stroke="#E8947A" stroke-width="1.5" stroke-linejoin="round"/>
  <!-- 아랫입술 -->
  <path d="M 56 194
           Q 46 186 32 183
           Q 22 189 22 196
           Q 22 203 32 211
           Q 46 204 56 194 Z"
        fill="#FFB59B" stroke="#E8947A" stroke-width="1.5" stroke-linejoin="round"/>
  <!-- 혀 (음소별) — 입 바닥과 분리된 자연스러운 위치 -->
  
      <!-- 혀몸통: 입 바닥(y≈238)보다 위에 떠 있어 혀 아래 공간이 보임 -->
      <path d="M 103 118
               Q 115 124 132 152
               Q 150 182 185 198
               Q 220 210 252 218
               Q 262 228 256 240
               Q 216 236 166 230
               Q 123 220 101 206
               Q 89 190 89 156
               Q 90 130 101 120 Z"
            fill="#FF9B8A" stroke="#E8705F" stroke-width="3.5" stroke-linejoin="round"/>
      <!-- 혀 등면 하이라이트 -->
      <path d="M 108 150 Q 146 186 188 202" fill="none" stroke="#FFFFFF"
            stroke-width="2.5" opacity="0.4" stroke-linecap="round"/>

  <!-- 접촉/근접 포인트 표시 -->
  
  <circle cx="106" cy="100" r="13" fill="#FFD93D" opacity="0.35"/>
  <circle cx="106" cy="100" r="6" fill="#FFC93D"/>
  <path d="M 106 78 l 2.6 6.5 6.9 0.6 -5.2 4.6 1.6 6.8 -5.9 -3.7 -5.9 3.7 1.6 -6.8 -5.2 -4.6 6.9 -0.6 Z"
        fill="#FFB38A" transform="translate(0,-6)"/>

  <!-- 공기 흐름 -->
  

</svg>