<svg viewBox="0 0 360 320" xmlns="http://www.w3.org/2000/svg" font-family="sans-serif">
  <!-- 카드 배경 -->
  <rect width="360" height="320" rx="28" fill="#FFF9F2"/>

  <!-- 얼굴 단면 살 (매끄러운 옆모습) -->
  <path d="M 28 40 Q 130 18 230 30 Q 320 42 330 110
           L 330 240 Q 320 290 240 296 Q 130 304 60 286
           Q 28 276 28 230 Q 25 180 28 130 Z"
        fill="#FFE3CC"/>

  <!-- 구강 내부 — 입술 사이 열린 공간까지 확장 -->
  <path d="M 23 124
           L 58 120
           Q 60 106 85 104
           Q 150 62 225 80 Q 272 92 282 122
           L 286 150 Q 290 162 280 168
           L 282 215 Q 270 252 200 256 Q 120 260 88 238 Q 62 224 58 202
           L 58 193
           L 23 189 Z"
        fill="#FFF6F0"/>
  <!-- 입 열린 공간 강조 (뚫린 느낌 — 진한 살구색으로 내부 표현) -->
  <path d="M 23 125
           Q 40 123 58 121
           L 58 192
           Q 40 190 23 188 Z"
        fill="#F5C4A8"/>
  <!-- 위아래 입술 안쪽 그림자 (깊이감) -->
  <path d="M 23 125 Q 40 123 58 121
           L 58 134 Q 40 138 23 134 Z"
        fill="#D9906E" opacity="0.3"/>
  <path d="M 23 188 Q 40 190 58 192
           L 58 179 Q 40 175 23 179 Z"
        fill="#D9906E" opacity="0.3"/>

  <!-- 입천장: 치조 융기 + 경구개 + 연구개/목젖 -->
  <path d="M 85 104 Q 96 96 108 104 Q 116 110 126 104
           Q 170 72 225 84 Q 266 94 278 120"
        fill="none" stroke="#E8A988" stroke-width="7" stroke-linecap="round"/>
  <!-- 목젖 -->
  <path d="M 278 120 Q 288 138 280 156 Q 276 166 282 174"
        fill="none" stroke="#E8A988" stroke-width="7" stroke-linecap="round"/>

  <!-- 입 바닥/아래턱 -->
  <path d="M 88 238 Q 150 258 230 250 Q 268 244 280 218"
        fill="none" stroke="#E8A988" stroke-width="7" stroke-linecap="round"/>

  <!-- 윗니 / 아랫니 -->
  <rect x="60" y="100" width="22" height="40" rx="9" fill="#FFFFFF" stroke="#E5D8CC" stroke-width="2.5"/>
  <rect x="60" y="180" width="22" height="40" rx="9" fill="#FFFFFF" stroke="#E5D8CC" stroke-width="2.5"/>

  <!-- 입술: 옆에서 본 렌즈형 사이드 프로파일 (발음별 열린 정도) -->
  <!-- 윗입술: 왼쪽(입술 끝)이 뾰족하고 오른쪽(입꼬리)이 연결됨 -->
  <path d="M 56 112
           Q 46 102 32 95
           Q 22 103 22 110
           Q 22 117 32 123
           Q 46 120 56 112 Z"
        fill="#FFB59B" stroke="#E8947A" stroke-width="1.5" stroke-linejoin="round"/>
  <!-- 아랫입술 -->
  <path d="M 56 201
           Q 46 193 32 190
           Q 22 196 22 203
           Q 22 210 32 218
           Q 46 211 56 201 Z"
        fill="#FFB59B" stroke="#E8947A" stroke-width="1.5" stroke-linejoin="round"/>
  <!-- 입꼬리 점 -->
  <circle cx="56" cy="157" r="3.5" fill="#E8947A" opacity="0.7"/>

  <!-- 혀 (음소별) — 입 바닥과 분리된 자연스러운 위치 -->
  
      <!-- 혀몸통: 편평하게 앞쪽이 높이 올라와 있고 입 바닥과 공간 유지 -->
      <path d="M 90 196
               Q 92 168 110 148
               Q 130 132 161 130
               Q 192 132 213 148
               Q 245 172 256 210
               Q 260 222 252 234
               Q 212 228 162 222
               Q 118 214 95 202
               Q 88 200 90 196 Z"
            fill="#FF9B8A" stroke="#E8705F" stroke-width="3.5" stroke-linejoin="round"/>
      <!-- 혀 등면 하이라이트 -->
      <path d="M 114 166 Q 152 152 198 164" fill="none" stroke="#FFFFFF"
            stroke-width="2.5" opacity="0.4" stroke-linecap="round"/>

  <!-- 접촉/근접 포인트 표시 -->
  <g stroke="#FFC93D" stroke-width="3.5" stroke-linecap="round">
        <path d="M 126 114 L 133 125"/>
        <path d="M 142 110 L 148 122"/>
      </g>

  <!-- 공기 흐름 -->
  
  <g stroke="#6FBDE8" stroke-width="4" fill="none" stroke-linecap="round" opacity="0.9">
    <path d="M 16 144 L 7 155 L 16 166"/>
    <path d="M 10 148 L 3 155 L 10 162"/>
  </g>

</svg>